<?xml version="1.0" encoding="UTF-8"?>
<svg width="19px" height="19px" viewBox="0 0 19 19" version="1.1" xmlns="http://www.w3.org/2000/svg" xmlns:xlink="http://www.w3.org/1999/xlink">
    <title>icon__tlg</title>
    <g id="Symbols" stroke="none" stroke-width="1" fill="none" fill-rule="evenodd">
        <g id="Menu-/-1440-/-Top-Home" transform="translate(-846.000000, -157.000000)" fill="#32afed" fill-rule="nonzero">
            <g id="Group-2" transform="translate(846.000000, 157.000000)">
                <path d="M9.5,0 C14.7468424,0 19,4.25315763 19,9.5 C19,14.7468424 14.7468424,19 9.5,19 C4.25315763,19 0,14.7468424 0,9.5 C0,4.25315763 4.25315763,0 9.5,0 Z M9.5,1 C4.80544237,1 1,4.80544237 1,9.5 C1,14.1945576 4.80544237,18 9.5,18 C14.1945576,18 18,14.1945576 18,9.5 C18,4.80544237 14.1945576,1 9.5,1 Z M13.8424781,5.63351043 C14.0320303,5.78664613 14.1120412,5.96643547 14.1491903,6.18107428 C14.1725724,6.31617125 14.1841095,6.51281857 14.16955,6.66848326 L14.1121203,7.18234569 L14.0581447,7.59906706 L13.9190859,8.57229107 L13.7482488,9.67534177 L13.5420806,10.9305989 L13.3003202,12.3231418 L13.1431641,13.1828527 C12.9938307,13.9823194 12.6348089,14.4602041 12.0828123,14.5118886 C11.704768,14.5466999 11.3727121,14.439715 11.0071798,14.2146224 L10.7957789,14.0757059 L10.4160132,13.8079815 L9.84573308,13.4291582 L8.43804028,12.4781731 C8.40225554,12.4544885 8.36555593,12.4302582 8.32726763,12.4050313 C7.66347452,11.9672104 7.45774881,11.4391637 7.79847339,10.8983822 C7.84663694,10.8219393 7.90244007,10.7500204 7.97127701,10.6732707 L8.11274328,10.5257809 L8.243,10.398 L7.53435887,10.8768076 C7.095552,11.1775938 6.67418831,11.3331092 6.26511312,11.3242847 C5.99672636,11.3186463 5.59862074,11.2325885 5.1347579,11.0969131 L4.39266582,10.8641736 L4.26914985,10.8238583 C3.65696111,10.6160106 3.3407999,10.3777767 3.40844735,9.83970755 C3.46018262,9.42697504 3.79994945,9.17459152 4.37403579,8.94669756 L9.06699134,6.9195817 L9.88489769,6.57693841 L11.3122406,5.99249233 L12.0119637,5.72083149 L12.4233243,5.57568112 L12.589493,5.52365864 L12.799544,5.46772937 L12.9734192,5.43449991 L13.0752753,5.42283266 L13.1701089,5.41806628 C13.3939164,5.41422224 13.6465837,5.47449815 13.8424781,5.63351043 Z M13.1718127,6.41992065 L13.0939972,6.42741258 L13.0124198,6.44386158 L12.8551,6.48660831 L12.6468218,6.55455052 L12.377445,6.65163425 L11.7651664,6.88891704 L9.60975763,7.7757599 L7.00264219,8.89488234 L4.674,9.904 L5.21065548,10.0750485 L5.550962,10.17508 L5.85448418,10.253059 C6.04097212,10.2966749 6.19214097,10.3225311 6.28639832,10.3245113 C6.4356582,10.3277311 6.62470715,10.2662873 6.8539339,10.1264858 L9.77399743,8.17077985 L10.4796164,7.71115109 L10.715402,7.56869507 L10.8342144,7.50591529 L10.892489,7.48097248 L10.9381846,7.4670245 C11.01498,7.4496836 11.0699052,7.44100101 11.146905,7.44165689 C11.2952439,7.44292042 11.4409492,7.48824364 11.5667969,7.59904034 C11.7740565,7.78327106 11.8110743,8.03508364 11.7632491,8.24624317 L11.7366743,8.32813119 C11.7250107,8.35607142 11.7102636,8.38499205 11.6915981,8.41590149 L11.6230117,8.51560476 L11.5259058,8.63329167 L11.3952714,8.77501289 L11.1254968,9.04589489 L10.2207227,9.90701942 L9.15678345,10.9011033 L8.79504223,11.257495 L8.70009812,11.358863 L8.64165555,11.4339257 L8.70184977,11.4615366 C8.71361817,11.467977 8.72758919,11.4759324 8.74414875,11.4857626 L9.20268451,11.7858324 L10.6135766,12.7395184 L10.978475,12.9811549 L11.4872482,13.3352871 C11.5022951,13.3449357 11.5169148,13.3541197 11.53153,13.3631197 C11.7292458,13.4848719 11.8628376,13.5279138 11.9903524,13.5161725 L11.9973431,13.5116049 L12.0235776,13.4727258 C12.0568668,13.4107096 12.1090919,13.2726658 12.1602007,12.9990515 L12.3836532,11.7650279 L12.6106549,10.4376777 L12.8232579,9.12210098 L12.9624641,8.20636884 L13.0414208,7.65429945 L13.1334758,6.94666713 C13.1417118,6.87744125 13.1492369,6.81162239 13.1560045,6.74948424 L13.1739875,6.57438559 C13.177688,6.53481915 13.1760417,6.47273773 13.1718127,6.41992065 Z" id="icon__tlg"></path>
            </g>
        </g>
    </g>
</svg>
