<svg xmlns="http://www.w3.org/2000/svg" width="26" height="26" viewBox="0 0 26 26"><g><g><path fill="none" stroke="#d9d7d7" stroke-linejoin="round" stroke-miterlimit="20" d="M13 1c6.628 0 12 5.372 12 12s-5.372 12-12 12S1 19.628 1 13 6.372 1 13 1z"/></g><g><path fill="none" stroke="#d9d7d7" stroke-linejoin="round" stroke-miterlimit="20" d="M6.435 12.87c3.499-1.525 5.832-2.53 6.999-3.015 3.332-1.386 4.025-1.627 4.476-1.635.1-.002.321.023.465.14a.505.505 0 0 1 .17.324c.017.094.037.306.021.473-.181 1.897-.962 6.502-1.36 8.627-.168.9-.5 1.2-.82 1.23-.697.065-1.226-.46-1.901-.902-1.056-.693-1.652-1.124-2.678-1.8-1.184-.78-.416-1.209.259-1.91.177-.184 3.247-2.977 3.306-3.23.008-.032.015-.15-.055-.212s-.174-.041-.249-.024c-.106.024-1.793 1.14-5.062 3.346-.479.328-.912.488-1.301.48-.429-.01-1.253-.242-1.865-.441-.752-.244-1.349-.374-1.297-.79.027-.215.325-.436.892-.662z"/></g></g></svg>