<svg xmlns="http://www.w3.org/2000/svg" width="25" height="25" viewBox="0 0 25 25"><g><g><path fill="none" stroke="#01e675" stroke-linejoin="round" stroke-miterlimit="20" d="M12.5 24c-2.167 0-4.275-.606-6.103-1.75a.481.481 0 0 0-.392-.052l-4.313 1.327a446.38 446.38 0 0 1 1.214-4.373.483.483 0 0 0-.057-.396A11.448 11.448 0 0 1 1 12.5C1 6.16 6.16 1 12.5 1S24 6.16 24 12.5 18.84 24 12.5 24z"/></g><g><path fill="none" stroke="#01e675" stroke-linejoin="round" stroke-miterlimit="20" d="M14.874 18.995c-4.842-.725-7.893-5.524-8.83-7.959-.93-2.417.728-5.116 1.735-5.116.928 0 1.785 2.547 1.836 2.925 0 .249-.081.595-1.042 1.555a.462.462 0 0 0-.138.334c0 2.47 5.32 5.898 6.243 5.898 1.124 0 1.886-2.228 2.501-2.228.308 0 .996.55 1.61.998.612.447 1.15.79 1.15 1.1 0 .67-1.329 3.056-5.065 2.493z"/></g></g></svg>